<?xml version="1.0" encoding="utf-8"?>
<!-- Generator: Adobe Illustrator 17.1.0, SVG Export Plug-In . SVG Version: 6.00 Build 0)  -->
<!DOCTYPE svg PUBLIC "-//W3C//DTD SVG 1.1//EN" "http://www.w3.org/Graphics/SVG/1.1/DTD/svg11.dtd">
<svg version="1.1" id="Capa_1" xmlns="http://www.w3.org/2000/svg" xmlns:xlink="http://www.w3.org/1999/xlink" x="0px" y="0px"
	 viewBox="173 239 232.6 303.6" enable-background="new 173 239 232.6 303.6" xml:space="preserve">
<g>
	<g>
		<path fill="#FFFFFF" d="M289.3,542.6l-3.5-1.3c-51.4-19.3-84.2-51.7-100.3-99c-13.6-40-12.8-83.6-12.2-122.1
			c0.1-8.1,0.3-15.7,0.3-23.1v-10h10c41.1,0,72.4-12.8,98.5-40.4l7.3-7.7l7.3,7.7c26.1,27.5,57.4,40.4,98.5,40.4h10v10
			c0,7.4,0.1,15,0.3,23.1c0.7,38.5,1.4,82.1-12.2,122.1c-16.1,47.3-48.9,79.7-100.3,99L289.3,542.6z M193.5,306.8
			c-0.1,4.5-0.1,9-0.2,13.7c-0.6,36.9-1.4,78.6,11.1,115.3c13.7,40.2,41.5,68.1,84.9,85.4c43.5-17.2,71.2-45.2,84.9-85.4
			c12.5-36.7,11.7-78.5,11.1-115.3c-0.1-4.7-0.2-9.3-0.2-13.7c-38.5-1.8-69.4-14.4-95.8-39.2C262.9,292.4,232.1,305,193.5,306.8z"/>
	</g>
	<g>
		<path fill="#FFFFFF" d="M285.1,456.6l-52.3-52.4l23.4-23.4l28.9,28.9c0,0,17.4-22.4,27.6-30.7c33.8-27.1,50.3-28.9,50.3-28.9
			l4.4,7.2c0,0-11.9,4.8-39.4,39.4C315,413,285.1,456.6,285.1,456.6z"/>
	</g>
</g>
</svg>
