<?xml version="1.0" encoding="utf-8"?>
<!-- Generator: Adobe Illustrator 17.1.0, SVG Export Plug-In . SVG Version: 6.00 Build 0)  -->
<!DOCTYPE svg PUBLIC "-//W3C//DTD SVG 1.1//EN" "http://www.w3.org/Graphics/SVG/1.1/DTD/svg11.dtd">
<svg version="1.1" id="Capa_1" xmlns="http://www.w3.org/2000/svg" xmlns:xlink="http://www.w3.org/1999/xlink" x="0px" y="0px"
	 viewBox="199 248.9 206.5 299.7" enable-background="new 199 248.9 206.5 299.7" xml:space="preserve">
<g>
	<path fill="#8BC700" d="M400.6,323.5c-1.1-4-3.2-8.3-4.8-12c-19.2-46.1-61.1-62.6-94.9-62.6c-45.3,0-95.2,30.4-101.8,93v12.8
		c0,0.5,0.2,5.3,0.4,7.7c3.7,29.8,27.3,61.5,44.9,91.4c18.9,32,38.5,63.4,58,94.8c12-20.5,24-41.3,35.7-61.3
		c3.2-5.9,6.9-11.7,10.1-17.3c2.1-3.7,6.2-7.5,8.1-10.9c18.9-34.6,49.4-69.5,49.4-103.9v-14.1C405.5,337.3,400.8,324.3,400.6,323.5
		L400.6,323.5z M301.7,387.7c-13.3,0-27.9-6.7-35.1-25c-1.1-2.9-1-8.8-1-9.3V345c0-23.4,19.9-34.1,37.2-34.1
		c21.3,0,37.8,17.1,37.8,38.4C340.6,370.6,323,387.7,301.7,387.7L301.7,387.7z"/>
</g>
</svg>
