<?xml version="1.0" encoding="utf-8"?>
<!-- Generator: Adobe Illustrator 17.1.0, SVG Export Plug-In . SVG Version: 6.00 Build 0)  -->
<!DOCTYPE svg PUBLIC "-//W3C//DTD SVG 1.1//EN" "http://www.w3.org/Graphics/SVG/1.1/DTD/svg11.dtd">
<svg version="1.1" id="Capa_1" xmlns="http://www.w3.org/2000/svg" xmlns:xlink="http://www.w3.org/1999/xlink" x="0px" y="0px"
	 viewBox="410.3 287.6 21.3 20" enable-background="new 410.3 287.6 21.3 20" xml:space="preserve">
<g>
	<path fill="#8BC700" d="M417.5,299.1c0,0.3-0.3,0.6-0.6,0.6H414c-0.3,0-0.6-0.3-0.6-0.6v-1.9c0-0.3,0.3-0.6,0.6-0.6h2.9
		c0.3,0,0.6,0.3,0.6,0.6V299.1z"/>
	<path fill="#8BC700" d="M417.5,304.2c0,0.3-0.3,0.6-0.6,0.6H414c-0.3,0-0.6-0.3-0.6-0.6v-1.9c0-0.3,0.3-0.6,0.6-0.6h2.9
		c0.3,0,0.6,0.3,0.6,0.6V304.2z"/>
	<path fill="#8BC700" d="M423,299.1c0,0.3-0.3,0.6-0.6,0.6h-2.9c-0.3,0-0.6-0.3-0.6-0.6v-1.9c0-0.3,0.3-0.6,0.6-0.6h2.9
		c0.3,0,0.6,0.3,0.6,0.6V299.1z"/>
	<path fill="#8BC700" d="M423,304.2c0,0.3-0.3,0.6-0.6,0.6h-2.9c-0.3,0-0.6-0.3-0.6-0.6v-1.9c0-0.3,0.3-0.6,0.6-0.6h2.9
		c0.3,0,0.6,0.3,0.6,0.6V304.2z"/>
	<path fill="#8BC700" d="M428.4,299.1c0,0.3-0.3,0.6-0.6,0.6h-2.9c-0.3,0-0.6-0.3-0.6-0.6v-1.9c0-0.3,0.3-0.6,0.6-0.6h2.9
		c0.3,0,0.6,0.3,0.6,0.6V299.1z"/>
	<path fill="#8BC700" d="M428.4,304.2c0,0.3-0.3,0.6-0.6,0.6h-2.9c-0.3,0-0.6-0.3-0.6-0.6v-1.9c0-0.3,0.3-0.6,0.6-0.6h2.9
		c0.3,0,0.6,0.3,0.6,0.6V304.2z"/>
	<path fill="#8BC700" d="M414.9,292.3c-0.3,0-0.6-0.3-0.6-0.6v-3.4c0-0.3,0.3-0.6,0.6-0.6h1.3c0.3,0,0.6,0.3,0.6,0.6v3.4
		c0,0.3-0.3,0.6-0.6,0.6H414.9z"/>
	<path fill="#8BC700" d="M425.7,292.3c-0.3,0-0.6-0.3-0.6-0.6v-3.4c0-0.3,0.3-0.6,0.6-0.6h1.3c0.3,0,0.6,0.3,0.6,0.6v3.4
		c0,0.3-0.3,0.6-0.6,0.6H425.7z"/>
	<path fill="#8BC700" d="M431,290.2h-1.8c-0.1,0-0.3,0-0.3,0.2v1.1c0,1-0.6,1.9-1.9,1.9h-1.2c-1.2,0-1.9-0.8-1.9-1.9v-1
		c0-0.2-0.1-0.3-0.3-0.3h-5.3c-0.1,0-0.3,0-0.3,0.3v1c0,1-0.5,1.9-1.9,1.9h-1.2c-1.5,0-1.9-0.8-1.9-1.9v-1c0-0.3-0.2-0.3-0.4-0.3
		h-1.7c-0.3,0-0.6,0.3-0.6,1.1v16.2c0-0.1,0.3,0.2,0.6,0.2H431c0.3,0,0.6-0.3,0.6-0.2v-16.2C431.6,290.5,431.3,290.2,431,290.2
		L431,290.2z M430.2,305.7c0,0.3-0.3,0.6-0.6,0.6h-17.4c-0.3,0-0.6-0.3-0.6-0.6v-10.1c0-0.3,0.3-0.6,0.6-0.6h17.4
		c0.3,0,0.6,0.3,0.6,0.6L430.2,305.7L430.2,305.7z"/>
</g>
</svg>
