<?xml version="1.0" encoding="utf-8"?>
<!-- Generator: Adobe Illustrator 17.1.0, SVG Export Plug-In . SVG Version: 6.00 Build 0)  -->
<!DOCTYPE svg PUBLIC "-//W3C//DTD SVG 1.1//EN" "http://www.w3.org/Graphics/SVG/1.1/DTD/svg11.dtd">
<svg version="1.1" id="Capa_1" xmlns="http://www.w3.org/2000/svg" xmlns:xlink="http://www.w3.org/1999/xlink" x="0px" y="0px"
	 viewBox="334.2 190.1 173 173.1" enable-background="new 334.2 190.1 173 173.1" xml:space="preserve">
<g>
	<path fill="#8BC700" d="M420.7,293.9c9.5,0,17.3-7.8,17.3-17.3c0-3.7-1.2-7.3-3.3-10.1c-3.2-4.4-8.3-7.2-14.1-7.2s-10.9,2.8-14,7.2
		c-2.1,2.8-3.3,6.4-3.3,10.1C403.4,286.2,411.2,293.9,420.7,293.9L420.7,293.9z"/>
	<path fill="#8BC700" d="M458.5,255.5v-16.7h-2.2l-14.5,0.1l0.1,16.7L458.5,255.5z"/>
	<path fill="#8BC700" d="M420.7,190.1c-47.7,0-86.5,38.8-86.5,86.5s38.8,86.5,86.5,86.5c47.7,0,86.5-38.8,86.5-86.5
		C507.2,228.9,468.4,190.1,420.7,190.1L420.7,190.1z M469.9,266.6v40.3c0,10.5-8.6,19-19,19h-60.4c-10.5,0-19-8.6-19-19v-60.4
		c0-10.5,8.6-19,19-19h60.4c10.5,0,19,8.6,19,19V266.6z"/>
	<path fill="#8BC700" d="M447.6,276.6c0,14.8-12.1,26.9-26.9,26.9s-26.9-12.1-26.9-26.9c0-3.5,0.7-7,2-10.1h-14.7v40.3
		c0,5.2,4.2,9.4,9.4,9.4h60.4c5.2,0,9.4-4.2,9.4-9.4v-40.3h-14.7C446.9,269.7,447.6,273.1,447.6,276.6L447.6,276.6z"/>
</g>
</svg>
