<?xml version="1.0" encoding="utf-8"?>
<!-- Generator: Adobe Illustrator 17.1.0, SVG Export Plug-In . SVG Version: 6.00 Build 0)  -->
<!DOCTYPE svg PUBLIC "-//W3C//DTD SVG 1.1//EN" "http://www.w3.org/Graphics/SVG/1.1/DTD/svg11.dtd">
<svg version="1.1" id="Capa_1" xmlns="http://www.w3.org/2000/svg" xmlns:xlink="http://www.w3.org/1999/xlink" x="0px" y="0px"
	 viewBox="124 272.8 338.3 217.8" enable-background="new 124 272.8 338.3 217.8" xml:space="preserve">
<g>
	<path fill="#FFFFFF" d="M430.3,272.8H156c-17.6,0-32,14.4-32,32v153.8c0,17.6,14.4,32,32,32h274.3c17.6,0,32-14.4,32-32V304.8
		C462.3,287.1,448,272.8,430.3,272.8L430.3,272.8z M438.3,458.6c0,4.4-3.6,8-8,8H156c-4.4,0-8-3.6-8-8V304.8c0-4.4,3.6-8,8-8h274.3
		c4.4,0,8,3.6,8,8V458.6z"/>
	<rect x="167.5" y="399.4" fill="#FFFFFF" width="252" height="42.5"/>
</g>
</svg>
