<?xml version="1.0" encoding="utf-8"?>
<!-- Generator: Adobe Illustrator 17.1.0, SVG Export Plug-In . SVG Version: 6.00 Build 0)  -->
<!DOCTYPE svg PUBLIC "-//W3C//DTD SVG 1.1//EN" "http://www.w3.org/Graphics/SVG/1.1/DTD/svg11.dtd">
<svg version="1.1" id="Capa_1" xmlns="http://www.w3.org/2000/svg" xmlns:xlink="http://www.w3.org/1999/xlink" x="0px" y="0px"
	 viewBox="180.6 269 255.3 253.7" enable-background="new 180.6 269 255.3 253.7" xml:space="preserve">
<g>
	<path fill="#FFFFFF" d="M208.5,485.8v37h-19.4V387.3c0-5.3,4.4-9.7,9.7-9.7c5.4,0,9.7,4.4,9.7,9.7v80.1h218.6v55.3h-19.5v-37
		L208.5,485.8L208.5,485.8z M238.4,426.3c9.7,0,17.5-7.9,17.5-17.6c0-9.7-7.8-17.5-17.5-17.5c-9.7,0-17.5,7.9-17.5,17.5
		C220.8,418.4,228.7,426.3,238.4,426.3L238.4,426.3z M427.5,452.8l-0.1-24.2c-0.1-7.7-6.6-13-14-13.9l-138-13.8
		c-0.3,0-0.5-0.1-0.7-0.1c-4.7,0-8.6,3.9-8.6,8.6v26h-36.2c-4.7,0-8.6,3.9-8.6,8.7c0,4.7,3.9,8.6,8.6,8.6L427.5,452.8L427.5,452.8z
		 M435.9,332.5l-127.5-63.3l-0.1-0.2l-0.1,0.1l-0.1-0.1l-0.1,0.2l-127.5,63.3l10.6,21.4l117-58.2l117,58.2L435.9,332.5z"/>
</g>
</svg>
