<?xml version="1.0" encoding="utf-8"?>
<!-- Generator: Adobe Illustrator 17.1.0, SVG Export Plug-In . SVG Version: 6.00 Build 0)  -->
<!DOCTYPE svg PUBLIC "-//W3C//DTD SVG 1.1//EN" "http://www.w3.org/Graphics/SVG/1.1/DTD/svg11.dtd">
<svg version="1.1" id="Capa_1" xmlns="http://www.w3.org/2000/svg" xmlns:xlink="http://www.w3.org/1999/xlink" x="0px" y="0px"
	 viewBox="183 253.6 235.7 235.7" enable-background="new 183 253.6 235.7 235.7" xml:space="preserve">
<g>
	<path fill="#8BC700" d="M300.8,253.6c-65,0-117.8,52.9-117.8,117.9c0,65,52.9,117.9,117.8,117.9c65,0,117.9-52.9,117.9-117.9
		C418.7,306.4,365.8,253.6,300.8,253.6L300.8,253.6z M309.7,441.7h-23.9v-63.8h-15.9v-22l15.9,0l0-12.9c0-17.9,4.9-28.8,26-28.8
		h17.6v22h-11c-8.2,0-8.6,3.1-8.6,8.8l0,11h19.8l-2.3,22l-17.4,0L309.7,441.7z"/>
</g>
</svg>
