<?xml version="1.0" encoding="utf-8"?>
<!-- Generator: Adobe Illustrator 17.1.0, SVG Export Plug-In . SVG Version: 6.00 Build 0)  -->
<!DOCTYPE svg PUBLIC "-//W3C//DTD SVG 1.1//EN" "http://www.w3.org/Graphics/SVG/1.1/DTD/svg11.dtd">
<svg version="1.1" id="Capa_1" xmlns="http://www.w3.org/2000/svg" xmlns:xlink="http://www.w3.org/1999/xlink" x="0px" y="0px"
	 viewBox="93.4 263 401.1 265.2" enable-background="new 93.4 263 401.1 265.2" xml:space="preserve">
<g>
	<g>
		<path fill="#FFFFFF" d="M367.2,357.9c-6.7,0-11.4-3.9-11.9-10l-0.1-1.3l1.3-0.1c12.3-0.8,26.9-4.5,26.9-18
			c0-13.4-10.9-15.4-17.4-15.4c-18,0-26.2,15.2-26.2,29.2c0,17.5,8.4,26.3,25,26.3c9.9,0,16.9-3.9,19-5.3l-3.8-9.4
			C375.6,356.5,371.2,357.9,367.2,357.9z M354.4,336.9c0.4-8.3,4.6-13.9,10.5-13.9c3.3,0,5.5,2.3,5.5,5.7c0,6.4-8.8,9.2-14.6,9.6
			l-1.4,0.1L354.4,336.9z"/>
		<path fill="#FFFFFF" d="M330.9,317c-2.7-2.9-6.8-4.4-12.1-4.4c-4.4,0-8.3,1.5-11.5,4.3l-2.2,2v-24.5h-15.5v51.2
			c-4.8,3.5-15.7,11.4-22.8,11.4c-4.5,0-12.2-2.1-12.2-16.5c0-10.4,4.1-16.6,10.9-16.6c4.3,0,7.3,2.8,9.6,5.8l8.8-7.5
			c-4.5-6.5-10.9-9.7-19.5-9.7c-11.8,0-25.5,7.5-25.5,28.7c0,17.4,9.2,27.5,25.2,27.4c10.5-0.1,20.8-5.9,25.4-9.6v8.1h15.5v-34.3
			c0-5.4,3.3-9,8.1-9c6.3,0,6.3,6.5,6.3,9.3v34H335v-36.3C335,324.6,333.6,320,330.9,317z"/>
		<path fill="#FFFFFF" d="M324.4,384c-6.6-2.7-14.7-3.4-19.7-3.2c-12.3,0.3-24.9,6.5-24.9,28.4c0,15.9,5.8,22.7,17.1,23.4
			c4.1,0.2,9.7-0.6,12.2-4.4l-0.1,8.1c-0.1,8.1-1.2,12.8-6.2,12.7c-5.2-0.1-6.2-7.2-6-8.1l-10.9,0.1c-1.2,1.9-0.5,17.3,15.2,17.4
			c24,0.2,23.3-27.8,23.3-29.4L324.4,384L324.4,384z M309,416.4c0,3.3-2.5,6.8-7.2,6.8c-8.3,0-8.3-11.4-8.3-15.1
			c0-4.8,0.7-8.9,2-11.7c1.6-3.7,4.3-5.6,7.8-5.6c1.8,0,3.6,0.3,4.9,0.8l0.8,0.3L309,416.4L309,416.4z M272.9,384.2
			c-7.9-2.9-15.2-3.7-18.4-3.7c-16.7,0-26.2,10.4-26.2,28.5c0,3.2,0.3,6.1,0.7,8.6c-6.6,2.9-9.7,2.8-9.8,2.8
			c-4.9-0.1-5.2-2.5-5.2-6.1v-50.8h-14.5v52.1c0,4.5,0.2,9.1,2.2,12.3c2.2,3.4,6.5,5.1,13.2,5.1c4,0,12.9-2.4,18.4-5.4
			c3,3.5,7.4,5.3,13.1,5.3c5.6,0,9.5-1.9,12-5.8l1.5-2.3l1.8,6.6h12.1l-1-9.7L272.9,384.2L272.9,384.2z M258.6,416.1
			c0,3.4-2.6,7-7.4,7c-8.5,0-8.5-11.7-8.5-15.5c0-4.9,0.7-9.1,2-12.1c1.7-3.8,4.5-5.8,8-5.8c1.8,0,3.7,0.3,5.1,0.8l0.8,0.3V416.1z
			 M374.1,384.2c-7.9-2.9-15.2-3.7-18.4-3.7c-16.7,0-26.2,10.4-26.2,28.5c0,15.8,6.1,23.9,18.2,23.9c5.6,0,9.5-1.9,12-5.8l1.5-2.3
			l1.8,6.6h12.1l-1-9.7V384.2z M359.8,416.1c0,3.4-2.6,7-7.4,7c-8.5,0-8.5-11.7-8.5-15.5c0-4.9,0.7-9.1,2-12.1
			c1.7-3.8,4.5-5.8,8-5.8c1.8,0,3.7,0.3,5.1,0.8l0.8,0.3V416.1z M395.2,388.4l-1.6,3.7l-1.9-10.2h-11.4l1.1,8.6v40.8H396v-30.5
			c0.1-5.2,3.5-8.6,8.6-8.6c2.2,0,4.4,0.4,6.4,1.2l2.3-11.6c-2.1-0.9-4.7-1.4-7-1.4C403.9,380.5,398.2,381.2,395.2,388.4z
			 M486.2,384.4c-3.6-2.6-8.4-4-14.2-4c-11.4,0-23.6,7-23.6,26.6c0,17,7.7,25.9,22.2,25.9c14.7,0,23.9-10.5,23.9-27.5
			C494.5,395.5,491.7,388.5,486.2,384.4z M471.3,423.1c-8.1,0-8.1-12.1-8.1-17.9c0-12.4,4.4-15,8.1-15c7.1,0,8.1,8.5,8.1,16.8
			C479.4,414.5,478.5,423.1,471.3,423.1z M439.5,422.9c-0.2,0-0.5,0-0.7,0c-2.5,0-6.7-1.1-6.7-8.2V393h12.7v-10.8h-12.7v-12.1h-14.7
			v44.2c0,5,0.2,9.8,2.3,13.2c2.4,3.8,7.1,5.7,14.4,5.7h0.6c4.7,0,8.2,0,13.8-3.4l-4.3-7.8C443.1,422.5,442.3,422.7,439.5,422.9z"/>
	</g>
	<g>
		<path fill="#FFFFFF" d="M150.3,297.9c10.1,2.3,10.5,11.7,10.5,16.5c3.6-7,4.7-13.9,2.7-20c0,0-6.7-19.5-36-29.2
			C123.6,272.3,134.5,294.2,150.3,297.9z"/>
		<path fill="#FFFFFF" d="M153.9,462.5c18.3,13.1,21.1,31.5,18.7,42.1c-3.3,14.3-21.9,26.6-18.5,22.9
			C184.4,495,153.9,462.5,153.9,462.5z"/>
		<path fill="#FFFFFF" d="M154.9,445.3c-44.3-40.7-9.6-69.4,5.1-85.8c13.8-15.3,24.1-33.3,17.7-56.5c-2.4-9.3-8.1-25.4-24.3-34.7
			c-10.9-6.3-20.3-5.3-23.5-4.9c17.1,4.7,33.3,19.5,36.2,28.5c1.1,3.3,3.5,11.4-0.2,19.7c-5.4,10.1-9.3,14.5-14.8,20.7
			c-3.5,1.5-18.4,7.8-18.9,6.6c0,0-1.9-7.6,4-12.9c1.1-0.9,6.6-5.1,5.7-6c-0.7-0.7-2,0.5-3.7,1.9c-1.4,1.1-2.8,0.8-3.4,0.2
			c-1.2-1.2,2-10.4,2.6-11.7c0.9-1.9-0.8-2.6-1.6-0.7c-1,2.1-3.7,8.5-5.3,8.2c-1.6-0.3-1-13.2-1-14c0.1-2.4-1.9-2.4-2.1,0.2
			c-0.1,2,0.2,13.9-1.1,14.1c-1.5,0.3-4.1-6.9-4.2-7.2c-1.1-2.9-3-3.1-1.2,3c0.9,3.4,3.8,10,5,14.3c1.7,6-3.5,21.1,2.3,21.1
			c2.6,0,9.8-3.5,13.1-5.1c-3.1,4-6.6,8.8-10.9,15c-5.6,8.2-9.1,16.9-10.6,25.7c-7.1,2-25.3,7.5-26.2,12
			c-1.5,6.8,8.7,11.7,12.5,13.4c0,0,0,0,0,0c1.3,0.6,2.1,1.2,2.4,1.5c3,2.5-5.4,2.5-9,3.4c-5.3,1.3-4.1,2.9-2.8,2.9
			c1.4,0,5.6-1.3,6.5-1.1c1.6,0.3,1.2,1.3-0.5,2c-2.1,0.9-6.5,4.5-7.9,5.8c-2,1.8-0.3,3.1,1.4,1.6c1.4-1.2,8.6-7.2,9.8-5.9
			c1,1.1,0.6,0.6-2.9,6c-5.9,9.1-6,15.4-4.6,15.4c1.4,0,2-4,2.8-6.2c1.7-4.6,4.9-9.7,6.7-11.6c1.8-1.8,2.8-0.8,2.5,2.8
			c-0.5,5.6,0.4,8.7,1.8,8.9c1.4,0.2,0.7-2.7,0.4-4c-0.6-2.6,0.5-9.3,1.7-11.5c3.1-6.4,1.9-8.5,0-10.9c-3-3.8-10.7-8.9-10.7-8.9
			s-3.8-1.7,6.6-1c2.9,0.2,6.3,0,8.8-0.2c1.4,19.8,12.3,39.4,31.3,55.5c26.7,22.6,25.3,34.4,25.3,47.4
			C175.7,502.3,192.5,479.9,154.9,445.3z"/>
		<path fill="#FFFFFF" d="M205.6,291.8c1.8-6.1-0.1-5.9-1.2-3c-0.1,0.3-2.7,7.6-4.2,7.3c-1.3-0.2-1.1-12.1-1.3-14.1
			c-0.2-2.7-2.2-2.7-2.1-0.2c0,0.8,0.8,13.8-0.9,14.1c-1.6,0.3-4.4-6.1-5.4-8.2c-0.9-1.9-2.5-1.1-1.6,0.7c0.6,1.3,4,10.5,2.7,11.7
			c-0.6,0.6-1.9,0.9-3.4-0.2c-1.8-1.4-3.1-2.6-3.8-1.9c-0.9,1,4.7,5.1,5.8,6c0.8,0.7,3.2,1.8,4.5,4c0.1,1.4,0.1,3.2,0,5.4
			c-1.1,5.4-7.4,7.9-8.6,8.5c-1.3-4.9-3.2-8.5-4.3-10.3c2.6,22.6-5,33.6-18.6,49.4c-13.4,15.6-34.6,34.6-23.6,57
			c-1-6.1-0.4-16.6,11-30.9c8.7,1.5,18.7-4.1,20.9-3.6c4,0.9-8.3,7.8-8.5,7.9c-0.4,0.2-2.5,1.5-3.2,4c0,0,0,0,0,0c0,0,0,0,0,0
			c-0.5,1.8-0.2,4.4,2.1,8.2c1.3,1.9,2.9,8.1,2.6,10.6c-0.2,1.2-0.6,4,0.7,3.7c1.3-0.3,1.9-3.3,0.9-8.5c-0.6-3.3,0.2-4.4,2.1-2.8
			c1.8,1.6,5.3,6.1,7.2,10.2c0.9,2,1.9,5.7,3.2,5.6c1.3-0.1,0.7-6-5.6-13.9c-3.7-4.7-4.1-4.2-3.2-5.3c1-1.3,8.2,3.6,9.6,4.7
			c1.8,1.3,3.2-0.1,1.2-1.6c-1.5-1.1-5.9-4.1-7.9-4.8c-1.6-0.5-2.1-1.4-0.6-1.8c0.8-0.2,4.8,0.6,6.1,0.5c1.3-0.1,2.3-2.3-2.8-2.5
			c-16.9-0.5,2.5-7.3,6.9-15.8c3.2-6.3-0.1-7.1-6.4-7.1c-3.6,0-10.9,0.6-14.6,1.2c1.6-1.5,3.3-3,5.1-4.6
			c16.7-14.2,21.3-28,21.3-38.9c4.4-2.6,13.5-9.9,14-15.4c0.1-1.5-0.7-5.5-1.1-8.7c0-0.8,0.1-1.5,0.3-2.1
			C201.9,301.9,204.7,295.3,205.6,291.8z"/>
	</g>
	<g>
		<path fill="#FFFFFF" d="M336,480.1v-37.8h5v15h0.1c1.9-2.9,4.7-4.3,8.5-4.3c6.9,0,9,4.6,9,9.3v17.8h-5v-15.6
			c0-4.6-1.2-7.6-5.9-7.7c-2-0.1-5,1.5-6,3.7c-1.2,2.7-0.8,4.6-0.8,6.1v13.5L336,480.1L336,480.1z"/>
		<path fill="#FFFFFF" d="M390.1,466.9c0,8.2-4.5,13.9-13.1,13.9c-8.6,0-13.1-5.8-13.1-13.9S368.4,453,377,453
			C385.7,453,390.1,458.8,390.1,466.9z M377,477.3c5.9,0,7.9-4.7,7.9-10.3c0-5.6-1.9-10.3-7.9-10.3c-5.9,0-7.9,4.7-7.9,10.3
			C369.2,472.5,371.1,477.3,377,477.3z"/>
		<path fill="#FFFFFF" d="M403.8,453c5,0,10.6,2.1,10.2,8.1h-5.2c0.2-3.4-2.4-4.5-5.2-4.5c-2.7,0-4.8,1.3-4.8,4.2s4.5,3.1,6.4,3.7
			c4.5,1.5,9.6,2,9.6,7.9c0,6.4-6.3,8.4-11.7,8.4c-5.5,0-10.1-2.5-10.1-8.6h5.2c0.1,3.2,2.3,5,5.3,5c2.9,0,5.9-1.2,5.9-4.6
			c0-5.9-16-1.5-16-11.7C393.4,455.5,399,453,403.8,453z"/>
		<path fill="#FFFFFF" d="M419.4,446.6l5.1,0l0,7l6.7,0l0,3.7l-6.7,0v17c0,1.9,1.5,2.8,3.2,2.8c0.8,0,1.8-0.1,2.6-0.3v3.8
			c-1.2,0.1-2.3,0.3-3.4,0.3c-1.2,0-2.1-0.1-3.4-0.3c-0.8-0.2-2.1-0.6-2.9-1.7c-0.9-1.3-1.2-1.4-1.2-4.9L419.4,446.6z"/>
		<path fill="#FFFFFF" d="M437.5,467.9c-0.4,4.6,1.5,9.4,6.6,9.4c3.9,0,5.8-1.5,6.4-5.3h5.2c-0.8,6-5.4,9-11.7,9
			c-8.4,0-11.8-6-11.8-13.7c0-7.7,3.9-14.2,12.2-14.2c7.9,0.2,11.6,5.1,11.6,12.4v2.5L437.5,467.9L437.5,467.9z M450.8,464.4
			c0.1-4.4-1.9-7.8-6.7-7.8c-4.1,0-6.6,3.5-6.6,7.8H450.8z"/>
		<path fill="#FFFFFF" d="M461.2,480.1v-37.8h5v37.8H461.2z"/>
		<path fill="#FFFFFF" d="M481.7,453c5,0,10.6,2.1,10.2,8.1h-5.2c0.2-3.4-2.4-4.5-5.2-4.5c-2.7,0-4.8,1.3-4.8,4.2s4.5,3.1,6.4,3.7
			c4.5,1.5,9.6,2,9.6,7.9c0,6.4-6.3,8.4-11.7,8.4c-5.5,0-10.1-2.5-10.1-8.6h5.2c0.1,3.2,2.3,5,5.3,5c2.9,0,5.9-1.2,5.9-4.6
			c0-5.9-16-1.5-16-11.7C471.4,455.5,476.9,453,481.7,453z"/>
	</g>
</g>
</svg>
